<?xml version="1.0" standalone="no"?>
<!DOCTYPE svg PUBLIC "-//W3C//DTD SVG 20010904//EN"
 "http://www.w3.org/TR/2001/REC-SVG-20010904/DTD/svg10.dtd">
<svg version="1.0" xmlns="http://www.w3.org/2000/svg"
 width="300.000000pt" height="300.000000pt" viewBox="0 0 300.000000 300.000000"
 preserveAspectRatio="xMidYMid meet">
<metadata>
Created by potrace 1.14, written by Peter Selinger 2001-2017
</metadata>
<g transform="translate(0.000000,300.000000) scale(0.100000,-0.100000)"
fill="#000000" stroke="none">
<path d="M1359 2898 c-2 -18 1 -59 6 -83 2 -11 4 -27 4 -36 1 -13 10 -16 38
-14 20 1 39 8 41 15 3 9 -4 10 -26 6 -25 -6 -30 -4 -35 16 -7 24 8 39 29 31 6
-2 15 0 19 6 4 7 -5 11 -25 11 -27 0 -31 3 -28 23 2 15 10 22 25 22 12 0 25 3
29 8 4 4 -11 7 -34 7 -26 0 -42 -5 -43 -12z"/>
<path d="M1535 2859 c-3 -4 -11 -6 -19 -3 -9 3 -13 -8 -13 -41 0 -25 3 -45 8
-45 5 0 9 16 9 35 0 19 5 36 10 37 30 4 35 1 36 -27 2 -43 3 -45 13 -45 7 0 8
22 2 76 -1 14 -39 25 -46 13z"/>
<path d="M1825 2860 c-3 -5 -1 -10 4 -10 6 0 11 5 11 10 0 6 -2 10 -4 10 -3 0
-8 -4 -11 -10z"/>
<path d="M1100 2852 c0 -4 9 -36 21 -70 24 -72 44 -85 22 -14 -8 26 -17 57
-20 70 -5 20 -23 32 -23 14z"/>
<path d="M1659 2844 c-7 -9 -14 -28 -14 -43 -1 -14 -6 -35 -12 -47 -9 -16 -9
-21 0 -22 7 0 28 -3 47 -5 30 -4 36 -1 37 14 2 16 -39 51 -44 38 -1 -2 -5 -1
-9 4 -4 4 5 7 19 7 22 0 27 5 27 26 0 14 4 23 10 19 6 -3 10 -1 10 5 0 7 -6
10 -12 7 -7 -2 -20 -1 -29 4 -11 6 -21 3 -30 -7z m31 -24 c0 -19 -11 -26 -23
-14 -8 8 3 34 14 34 5 0 9 -9 9 -20z m10 -70 c0 -5 -11 -10 -25 -10 -14 0 -25
5 -25 10 0 6 11 10 25 10 14 0 25 -4 25 -10z"/>
<path d="M1817 2823 c-11 -19 -19 -95 -9 -89 11 7 27 84 19 92 -3 3 -7 2 -10
-3z"/>
<path d="M1910 2755 c-7 -25 -10 -48 -7 -52 4 -3 9 2 12 11 3 9 7 23 10 31 6
22 35 31 45 14 5 -7 4 -21 -1 -30 -12 -22 -12 -56 0 -43 13 14 28 67 24 82 -3
6 -15 12 -27 12 -12 0 -27 5 -33 11 -7 7 -14 -4 -23 -36z"/>
<path d="M978 2759 c-23 -13 -23 -51 0 -72 25 -22 49 -21 62 2 14 27 13 47 -6
65 -18 18 -32 20 -56 5z m47 -39 c0 -38 -39 -35 -43 3 -3 25 0 28 20 25 17 -2
23 -9 23 -28z"/>
<path d="M2038 2706 c-20 -46 21 -89 58 -60 18 13 17 14 -11 12 -22 -2 -30 2
-33 15 -4 19 4 19 56 0 7 -3 12 3 12 14 0 46 -63 60 -82 19z m59 -3 c3 -7 -4
-9 -16 -6 -12 3 -18 9 -15 15 7 11 26 6 31 -9z"/>
<path d="M846 2691 c-23 -25 -13 -58 21 -74 22 -10 28 -8 44 12 24 29 24 36
-1 61 -25 25 -42 25 -64 1z m53 -15 c13 -16 4 -46 -14 -46 -19 0 -38 28 -31
45 7 19 30 19 45 1z"/>
<path d="M697 2667 l-27 -22 41 -58 c22 -31 45 -55 50 -52 5 4 1 18 -8 32 -16
25 -16 26 6 44 15 12 18 19 9 19 -8 0 -19 -5 -26 -12 -9 -9 -16 -8 -29 5 -17
17 -16 19 12 42 19 15 24 24 15 25 -8 0 -27 -10 -43 -23z"/>
<path d="M2172 2654 c-24 -17 -29 -53 -10 -72 15 -15 58 -16 58 -2 0 6 -11 10
-25 10 -18 0 -25 5 -25 20 0 24 8 25 34 5 11 -8 23 -15 28 -15 15 0 8 43 -9
56 -23 17 -24 17 -51 -2z m48 -20 c0 -14 -3 -14 -15 -4 -8 7 -15 14 -15 16 0
2 7 4 15 4 8 0 15 -7 15 -16z"/>
<path d="M2283 2557 c-31 -45 -29 -56 5 -24 19 19 34 25 50 20 13 -3 22 -1 22
6 0 6 -9 11 -21 11 -11 0 -17 5 -14 10 3 6 0 10 -7 10 -7 0 -23 -15 -35 -33z"/>
<path d="M495 2488 c-49 -28 -48 -40 8 -90 l52 -47 23 22 c26 25 25 55 -2 71
-11 6 -29 21 -40 33 -18 19 -24 21 -41 11z m35 -32 c0 -24 -26 -38 -40 -22 -6
9 -9 20 -5 26 9 15 45 12 45 -4z m50 -46 c0 -28 -19 -34 -41 -15 -18 17 -18
19 -2 30 22 16 43 8 43 -15z"/>
<path d="M2495 2395 c-27 -24 -46 -47 -42 -51 4 -4 15 0 25 9 23 21 29 21 49
2 8 -9 18 -13 21 -10 3 3 -2 13 -11 22 -15 15 -15 18 -1 34 15 17 17 16 39 -9
13 -15 26 -24 30 -20 7 6 -43 68 -54 68 -3 0 -28 -20 -56 -45z"/>
<path d="M400 2391 c0 -5 9 -16 20 -24 13 -9 18 -20 14 -31 -7 -17 -17 -17
-56 -1 -36 15 -16 -11 38 -48 56 -39 93 -43 41 -5 -26 19 -27 21 -11 39 16 17
17 17 37 -2 22 -20 37 -25 37 -10 0 5 -21 25 -47 44 -63 45 -73 50 -73 38z"/>
<path d="M2574 2280 c-39 -15 -40 -73 -2 -85 27 -9 70 21 66 47 -4 28 -38 48
-64 38z m44 -34 c6 -31 -43 -50 -54 -21 -8 20 15 47 35 43 9 -2 17 -12 19 -22z"/>
<path d="M317 2274 c-4 -4 0 -15 9 -25 21 -23 9 -41 -22 -33 -14 4 -24 2 -24
-5 0 -6 3 -11 8 -12 4 0 23 -2 44 -3 20 -1 43 -8 52 -15 8 -7 23 -11 33 -9 14
2 9 9 -19 26 -21 13 -38 27 -38 30 -1 15 -36 52 -43 46z"/>
<path d="M2630 2150 c-25 -25 -25 -32 -2 -60 17 -21 21 -22 48 -9 21 10 29 22
30 42 1 15 -3 30 -7 33 -23 14 -52 11 -69 -6z m58 -24 c6 -31 -43 -50 -54 -21
-8 20 15 47 35 43 9 -2 17 -12 19 -22z"/>
<path d="M712 1525 c0 -327 3 -596 7 -596 3 -1 38 -2 78 -3 65 -1 72 0 75 19
2 11 3 130 3 263 -1 192 1 245 12 249 7 3 104 6 215 7 l203 1 1 63 c0 34 -3
63 -8 64 -4 1 -97 2 -206 3 -109 1 -203 4 -208 8 -6 3 -10 82 -9 194 l0 188
280 1 c154 1 283 2 286 3 3 0 5 29 4 64 l0 62 -367 3 -367 2 1 -595z"/>
<path d="M1622 1523 l3 -598 350 0 350 0 5 24 c3 14 3 44 1 68 l-3 43 -274 0
-274 0 0 210 c0 193 1 210 18 211 9 0 116 2 237 2 l220 2 0 66 0 66 -225 1
c-124 0 -231 1 -237 1 -10 1 -13 45 -13 184 l0 182 258 0 257 0 0 65 0 65
-338 3 -337 2 2 -597z"/>
<path d="M2776 2033 c-4 -4 -30 -17 -58 -29 -28 -12 -46 -24 -40 -28 11 -7
132 45 132 57 0 9 -24 9 -34 0z"/>
<path d="M223 1970 c3 -11 1 -20 -4 -20 -25 0 -4 -20 36 -33 47 -16 65 -4 20
13 -14 5 -30 21 -35 35 -11 30 -25 34 -17 5z"/>
<path d="M178 1835 c-9 -21 -8 -28 7 -45 25 -28 63 -26 77 4 11 25 6 56 -10
56 -4 0 -8 -12 -7 -27 0 -19 -6 -29 -19 -31 -13 -3 -16 0 -10 9 4 7 9 23 10
36 4 32 -33 31 -48 -2z m32 -9 c0 -8 -4 -18 -10 -21 -5 -3 -10 3 -10 14 0 12
5 21 10 21 6 0 10 -6 10 -14z"/>
<path d="M2825 1780 c-16 -4 -42 -11 -57 -14 -24 -5 -26 -9 -18 -36 5 -17 9
-33 9 -35 1 -3 4 -4 9 -2 4 1 6 4 6 7 -1 3 -5 15 -9 28 -6 21 -4 23 21 20 20
-2 30 -10 34 -28 4 -15 9 -20 13 -13 4 6 4 19 1 28 -4 10 -1 21 7 26 22 14 27
11 34 -21 4 -16 11 -30 16 -30 5 0 6 12 3 27 -4 15 -7 33 -7 40 0 14 -17 15
-62 3z"/>
<path d="M163 1712 c-39 -31 6 -91 53 -70 26 12 35 38 22 62 -13 24 -31 20
-18 -4 12 -22 6 -40 -14 -40 -8 0 -11 10 -8 29 5 36 -7 44 -35 23z m20 -33
c-4 -13 -9 -17 -15 -11 -11 11 -3 32 12 32 4 0 6 -9 3 -21z"/>
<path d="M2780 1630 c-32 -8 -12 -21 22 -15 27 5 54 -17 43 -35 -3 -5 -22 -10
-41 -10 -19 0 -34 -5 -34 -11 0 -8 64 -8 86 0 8 3 10 42 2 47 -5 3 -7 12 -4
19 5 15 -28 17 -74 5z"/>
<path d="M147 1577 c-10 -8 -13 -23 -10 -44 5 -30 7 -32 49 -30 47 1 62 17 17
17 -38 0 -57 14 -49 35 4 11 15 16 36 13 16 -1 31 1 32 6 4 14 -58 16 -75 3z"/>
<path d="M2742 1506 c3 -4 3 -20 -2 -35 -9 -31 4 -61 25 -61 8 0 17 12 21 28
9 43 12 49 13 25 1 -22 33 -48 45 -36 3 3 6 1 6 -5 0 -7 3 -12 8 -12 11 0 9
57 -3 69 -6 6 -26 11 -45 12 -19 2 -44 7 -55 12 -11 5 -17 7 -13 3z m30 -38
c6 -17 -1 -38 -13 -38 -5 0 -9 11 -9 25 0 26 14 34 22 13z m73 2 c9 -15 -3
-30 -20 -24 -7 3 -11 12 -8 20 6 16 19 18 28 4z"/>
<path d="M168 1413 c-16 -3 -28 -8 -28 -13 0 -5 12 -7 28 -5 15 2 38 4 51 4
13 1 21 4 17 8 -8 9 -33 11 -68 6z"/>
<path d="M95 1400 c-3 -5 1 -10 10 -10 9 0 13 5 10 10 -3 6 -8 10 -10 10 -2 0
-7 -4 -10 -10z"/>
<path d="M253 1323 c-19 -4 -23 -11 -23 -41 0 -36 0 -37 -13 -12 -7 14 -21 25
-32 25 -11 0 -23 5 -27 10 -10 13 -4 -47 6 -63 5 -9 23 -11 59 -7 65 8 67 9
57 47 -5 17 -7 35 -4 39 3 5 4 8 2 8 -2 -1 -13 -4 -25 -6z m15 -51 c2 -12 -1
-22 -7 -22 -6 0 -11 4 -11 9 0 5 -3 17 -7 27 -4 12 -2 15 8 12 8 -2 15 -14 17
-26z m-63 -2 c3 -6 -1 -13 -10 -16 -19 -8 -30 0 -20 15 8 14 22 14 30 1z"/>
<path d="M2765 1320 c3 -5 24 -10 46 -10 24 0 38 4 34 10 -3 6 -24 10 -46 10
-24 0 -38 -4 -34 -10z"/>
<path d="M2875 1310 c3 -5 10 -10 16 -10 5 0 9 5 9 10 0 6 -7 10 -16 10 -8 0
-12 -4 -9 -10z"/>
<path d="M2745 1220 c3 -5 14 -10 24 -10 24 0 45 -26 37 -46 -3 -8 -10 -13
-14 -10 -17 10 -62 14 -67 6 -5 -9 82 -26 90 -18 3 2 7 20 9 40 4 33 3 36 -26
42 -44 9 -60 7 -53 -4z"/>
<path d="M234 1179 c-17 -5 -37 -15 -43 -23 -12 -14 -5 -46 10 -46 4 0 6 -7 3
-15 -7 -18 -9 -18 41 -1 21 8 41 19 43 25 2 7 -5 7 -27 0 -17 -6 -38 -8 -46
-5 -26 10 -16 32 20 45 19 7 35 17 35 22 0 5 -1 9 -2 8 -2 0 -17 -5 -34 -10z"/>
<path d="M2615 1089 c-4 -6 -5 -12 -2 -15 2 -3 7 2 10 11 7 17 1 20 -8 4z"/>
<path d="M2705 1084 c-17 -18 -17 -55 0 -61 6 -2 11 9 10 23 0 15 6 29 13 32
10 3 12 -5 8 -32 -5 -33 -4 -36 19 -36 14 0 25 4 25 9 0 5 3 16 6 24 6 17 -29
57 -50 57 -8 0 -22 -7 -31 -16z m61 -51 c-11 -11 -19 6 -11 24 8 17 8 17 12 0
3 -10 2 -21 -1 -24z"/>
<path d="M302 1029 c8 -25 8 -33 -3 -40 -22 -14 -29 -11 -41 16 -6 13 -15 22
-19 19 -5 -3 -5 -14 1 -24 14 -27 12 -37 -8 -42 -13 -4 -22 3 -31 23 -7 16
-16 27 -21 24 -9 -5 20 -75 32 -75 11 0 118 51 122 59 6 9 -25 71 -35 71 -4 0
-3 -14 3 -31z"/>
<path d="M2652 958 c-15 -15 -16 -58 -2 -58 6 0 10 6 9 13 -3 26 2 37 17 37
15 0 14 -10 -4 -58 -3 -10 3 -13 24 -10 24 2 30 8 32 33 5 44 -46 73 -76 43z
m54 -56 c-18 -16 -19 -16 -12 1 3 10 6 24 6 30 0 8 4 7 12 -1 10 -9 8 -16 -6
-30z"/>
<path d="M2590 841 c0 -5 9 -13 20 -16 11 -3 21 -14 22 -23 0 -9 2 -22 2 -29
3 -25 16 -25 16 1 0 16 4 25 10 21 6 -3 10 -1 10 5 0 10 -57 50 -72 50 -5 0
-8 -4 -8 -9z"/>
<path d="M389 758 c-44 -32 -61 -49 -55 -56 5 -5 115 72 116 81 0 14 -16 7
-61 -25z"/>
<path d="M468 688 c-49 -40 -1 -108 51 -72 25 18 27 46 5 68 -19 19 -35 20
-56 4z m52 -28 c0 -21 -27 -40 -47 -33 -28 10 -5 53 29 53 11 0 18 -7 18 -20z"/>
<path d="M2436 641 c-4 -5 4 -17 16 -25 19 -14 21 -19 10 -36 -19 -32 -13 -47
8 -20 18 24 20 24 36 8 17 -17 17 -19 -6 -43 -13 -14 -20 -28 -17 -32 9 -8 57
44 57 61 0 7 -12 23 -27 36 -16 12 -38 31 -49 42 -13 12 -24 15 -28 9z"/>
<path d="M557 582 c-22 -24 -22 -59 1 -70 55 -29 102 37 54 76 -22 17 -36 15
-55 -6z m57 -17 c5 -14 -17 -45 -33 -45 -19 0 -29 23 -18 41 14 23 43 25 51 4z"/>
<path d="M2316 524 c-9 -8 -16 -22 -16 -30 0 -15 35 -54 48 -54 19 0 51 33 49
49 -7 47 -51 65 -81 35z m54 -19 c15 -18 6 -45 -13 -45 -20 0 -40 27 -33 45 7
19 30 19 46 0z"/>
<path d="M714 455 c-16 -24 -18 -25 -35 -9 -11 10 -22 14 -26 10 -5 -4 0 -12
10 -17 19 -11 23 -34 7 -44 -5 -3 -23 1 -40 10 -33 17 -40 10 -12 -12 45 -36
48 -35 91 22 23 30 41 57 41 60 0 14 -21 2 -36 -20z"/>
<path d="M2218 453 c-9 -2 -19 -16 -23 -31 -10 -39 39 -76 71 -54 21 14 23 53
3 73 -19 19 -22 20 -51 12z m42 -33 c12 -23 6 -40 -14 -40 -20 0 -39 27 -32
45 8 21 33 19 46 -5z"/>
<path d="M550 416 c0 -2 8 -10 18 -17 15 -13 16 -12 3 4 -13 16 -21 21 -21 13z"/>
<path d="M910 406 c0 -2 7 -7 16 -10 8 -3 12 -2 9 4 -6 10 -25 14 -25 6z"/>
<path d="M2097 374 c-3 -3 5 -24 19 -45 13 -21 24 -43 24 -48 0 -5 7 -14 15
-21 24 -20 18 5 -16 65 -33 59 -33 58 -42 49z"/>
<path d="M945 330 c-7 -23 -41 -44 -55 -35 -6 3 -10 1 -10 -4 0 -6 9 -11 20
-11 11 0 20 -4 20 -10 0 -21 18 -9 28 18 5 15 13 35 17 45 4 9 3 17 -3 17 -6
0 -14 -9 -17 -20z"/>
<path d="M1037 308 c-24 -13 -22 -32 1 -19 13 7 23 6 30 -1 21 -21 12 -30 -23
-24 -31 6 -35 4 -35 -13 0 -42 67 -48 83 -7 15 37 -24 82 -56 64z m23 -68 c12
-8 11 -10 -7 -10 -13 0 -23 5 -23 10 0 13 11 13 30 0z"/>
<path d="M1843 277 c-18 -5 -33 -14 -33 -19 0 -8 18 -5 57 9 6 2 14 -5 18 -17
7 -22 1 -34 -16 -36 -5 -1 -13 -2 -19 -3 -5 0 -10 -5 -10 -11 0 -5 13 -7 29
-4 21 4 30 2 34 -11 5 -12 -1 -19 -23 -27 -17 -5 -27 -14 -24 -19 3 -5 10 -7
15 -4 5 4 19 8 30 10 12 3 24 7 27 9 7 8 -33 129 -44 132 -5 1 -24 -3 -41 -9z"/>
<path d="M1157 263 c-14 -14 -6 -19 23 -15 23 3 30 0 30 -13 0 -14 -6 -16 -35
-11 -31 6 -35 4 -35 -13 0 -32 36 -46 66 -26 26 17 30 35 14 66 -10 18 -50 26
-63 12z m38 -63 c3 -5 -1 -10 -9 -10 -8 0 -18 5 -21 10 -3 6 1 10 9 10 8 0 18
-4 21 -10z"/>
<path d="M1566 262 c-20 -4 -19 -46 2 -48 59 -6 58 -6 37 -11 -30 -7 -45 -23
-38 -39 3 -8 0 -14 -7 -14 -6 0 -9 -4 -6 -9 3 -5 20 -6 38 -2 32 7 33 8 38 67
5 59 5 60 -20 59 -14 0 -34 -1 -44 -3z m54 -22 c0 -5 -14 -10 -31 -10 -17 0
-28 4 -24 10 3 6 17 10 31 10 13 0 24 -4 24 -10z m-6 -59 c3 -5 0 -14 -8 -20
-10 -9 -15 -8 -19 3 -9 22 15 37 27 17z"/>
<path d="M1751 230 c5 -65 -34 -86 -45 -25 -4 19 -11 35 -16 35 -13 0 -1 -62
15 -78 10 -11 17 -11 34 -3 12 7 26 9 31 6 7 -4 8 9 4 37 -8 55 -26 76 -23 28z"/>
<path d="M1278 210 c-4 -48 5 -60 49 -60 31 0 33 2 33 35 0 19 0 37 0 40 0 3
-3 5 -7 5 -5 0 -8 -8 -8 -18 0 -25 -23 -52 -40 -46 -8 3 -11 18 -9 39 1 19 -1
37 -5 40 -5 3 -11 -13 -13 -35z"/>
<path d="M1447 193 c1 -21 2 -44 2 -52 1 -8 4 -11 8 -7 12 11 11 96 -1 96 -6
0 -10 -16 -9 -37z"/>
<path d="M1450 100 c0 -5 5 -10 10 -10 6 0 10 5 10 10 0 6 -4 10 -10 10 -5 0
-10 -4 -10 -10z"/>
</g>
</svg>
